<svg xmlns="http://www.w3.org/2000/svg" version="1.1" xmlns:xlink="http://www.w3.org/1999/xlink" xmlns:svgjs="http://svgjs.dev/svgjs" width="1000" height="1000" viewBox="0 0 1000 1000"><rect width="1000" height="304.915625" fill="#dedede"></rect><g transform="matrix(0.7,0,0,0.7,149.76897880198885,246.1057900835971)"><svg viewBox="0 0 340 247" data-background-color="#dedede" preserveAspectRatio="xMidYMid meet" height="726" width="1000" xmlns="http://www.w3.org/2000/svg" xmlns:xlink="http://www.w3.org/1999/xlink"><g id="tight-bounds" transform="matrix(1,0,0,1,0.1122118572220927,-0.09999463017865651)"><svg viewBox="0 0 339.775570174022 247.2" height="247.2" width="339.775570174022"><g><svg viewBox="0 0 684.658606707746 498.11588129032253" height="247.2" width="339.775570174022"><g transform="matrix(1,0,0,1,289.1386067077461,153.92503741935482)"><svg viewBox="0 0 395.52 190.2658064516129" height="190.2658064516129" width="395.52"><g id="textblocktransform"><svg viewBox="0 0 395.52 190.2658064516129" height="190.2658064516129" width="395.52" id="textblock"><g><svg viewBox="0 0 395.52 190.2658064516129" height="190.2658064516129" width="395.52"><g transform="matrix(1,0,0,1,0,0)"><svg width="395.52" viewBox="1.1200000047683716 -37.5 77.94999694824219 37.5" height="190.2658064516129" data-palette-color="#374151"><path d="M12.5-7.54L19.51-35.55 23.32-35.55 22.97-28.83 15.43 0 11.47 0 12.5-7.54ZM7.4-35.55L13.09-7.71 13.5 0 9.3 0 1.12-35.55 7.4-35.55ZM31.23-7.79L36.82-35.55 43.09-35.55 34.94 0 30.71 0 31.23-7.79ZM24.8-35.55L31.76-7.45 32.74 0 28.78 0 21.36-28.83 21.07-35.55 24.8-35.55ZM53.44-26.42L53.44 0 47.39 0 47.39-26.42 53.44-26.42ZM46.99-33.33L46.99-33.33Q46.99-34.72 47.9-35.63 48.8-36.55 50.41-36.55L50.41-36.55Q52.02-36.55 52.95-35.63 53.88-34.72 53.88-33.33L53.88-33.33Q53.88-31.96 52.95-31.04 52.02-30.13 50.41-30.13L50.41-30.13Q48.8-30.13 47.9-31.04 46.99-31.96 46.99-33.33ZM66.25-37.5L66.25 0 60.2 0 60.2-37.5 66.25-37.5ZM79.07-37.5L79.07 0 73.01 0 73.01-37.5 79.07-37.5Z" opacity="1" transform="matrix(1,0,0,1,0,0)" fill="#374151" class="wordmark-text-0" data-fill-palette-color="primary" id="text-0"></path></svg></g></svg></g></svg></g></svg></g><g><svg viewBox="0 0 244.2214161838751 498.11588129032253" height="498.11588129032253" width="244.2214161838751"><g><svg xmlns="http://www.w3.org/2000/svg" xmlns:xlink="http://www.w3.org/1999/xlink" version="1.1" x="0" y="0" viewBox="31.574302673339844 12.420007705688477 36.8507080078125 75.1609878540039" enable-background="new 0 0 100 100" xml:space="preserve" height="498.11588129032253" width="244.2214161838751" class="icon-icon-0" data-fill-palette-color="accent" id="icon-0"><circle cx="40.509" cy="50.434" r="2.9" fill="#374151" data-fill-palette-color="accent"></circle><path d="M37.103 47.527c0 0 5.312-1.625 7.125-0.5v-1.062C44.228 45.965 38.916 44.965 37.103 47.527z" fill="#374151" data-fill-palette-color="accent"></path><circle cx="59.87" cy="50.434" r="2.9" fill="#374151" data-fill-palette-color="accent"></circle><path d="M63.276 47.527c0 0-5.312-1.625-7.125-0.5v-1.062C56.151 45.965 61.464 44.965 63.276 47.527z" fill="#374151" data-fill-palette-color="accent"></path><polygon points="49.208,55.34 51.625,55.34 50.416,54.257 " fill="#374151" data-fill-palette-color="accent"></polygon><path d="M68.101 48.9c0.25-4.37-0.5-4.5-3.5-10.12-0.689-1.29-1.55-2.21-2.47-2.85l-0.08-0.46c-0.24-1.35-1.2-3.05-1.229-3.1l-4.78-9.65-0.37 1.2c-0.18 0.61-0.64 1.16-0.87 1.33-0.2-0.43-0.49-1.68-0.66-2.74l-0.05-0.35-0.35-0.06c-0.48-0.09-1.82-0.46-2.41-1.17 0.229-0.13 0.87-0.27 1.44-0.3l0.489-0.03-0.1-2.67 0.71 0.4-1.95-3.93c-0.34-0.85-0.89-1.98-1.77-1.98-1.051 0-1.551 1.56-1.641 1.95l-4.55 9.47h1.13l-0.16 2.67h0.53c0.61 0 1.39 0.39 1.65 0.64-0.391 0.27-1.57 0.78-2.57 1.14l-0.33 0.12v0.35c0 0.49-0.12 1.87-0.71 2.57-0.18-0.2-0.42-0.8-0.55-1.35l-0.12-0.49-1.97 0.44-0.11 0.16c-1.82 2.56-2.68 4.27-2.62 5.24l0.01 0.23c-2.01 1.21-2.66 3.66-2.66 3.66-3.5 1.62-3.44 9.68-3.44 9.68-1.37 6.08 0.54 8.44 2.4 9.33 0.1 0.2 0.22 0.391 0.34 0.58 1.77 2.67 4.67 3.07 6.24 3.07 0.47 0 0.77-0.04 0.78-0.04h2.641c-0.74 0.68-1.511 1.6-1.871 2.31-0.39 0.761-1.41 1.391-2.09 1.75 0.19 0.181 0.45 0.4 0.77 0.631 1.11 0.829 2.97 1.8 5.58 1.8 0.65 0 1.33-0.061 2.01-0.181l1.62-4.31 0.45 4.52c0.531 0.051 1.46 0.12 2.451 0.12 2.189 0 3.02-0.35 3.319-0.55 1.04-0.71 1.73-1.07 2.29-1.189-0.12-0.21-0.26-0.46-0.41-0.721-0.63-1.09-1.75-2.89-2.67-4.189h4.61c2.21-0.391 3.87-1.4 4.93-2.971 0.13-0.199 0.25-0.399 0.36-0.609C69.701 56.12 68.101 48.9 68.101 48.9zM41.46 30.83l0.64-0.15c0.23 0.72 0.66 1.69 1.4 1.69 0.19 0 0.47-0.06 0.74-0.36 0.74-0.81 0.92-2.22 0.96-2.9 1.03-0.38 2.51-0.99 2.83-1.49 0.17-0.25 0.18-0.56 0.029-0.85-0.3-0.57-1.26-1.05-2.069-1.2l0.16-2.73H45.55l3.891-8.12c0.18-0.66 0.54-1.28 0.699-1.3 0.011 0 0.351 0.08 0.871 1.39l1.12 2.26 0.09 2.6c-0.67 0.09-1.581 0.3-1.85 0.88-0.08 0.18-0.17 0.55 0.16 0.99 0.67 0.88 2.03 1.3 2.68 1.47 0.19 1.08 0.521 2.64 0.95 3.06 0.149 0.14 0.34 0.22 0.55 0.22 0.53 0 1.061-0.5 1.44-1.09l3.79 7.64c0 0.01 0.479 0.86 0.819 1.77-1.42-0.59-2.819-0.73-3.83-0.73-0.75 0-1.33 0.08-1.609 0.13-0.971-0.52-1.95-0.79-2.9-0.79s-1.65 0.27-2.01 0.45c-0.36-0.17-0.771-0.26-1.22-0.26-0.79 0-1.511 0.27-1.83 0.4-1.48-0.29-4.91 0.53-5.59 0.71-0.88-0.17-1.72-0.15-2.49 0.03C39.511 33.9 40.09 32.76 41.46 30.83zM65.751 54.04l-0.17 0.17 0.02 0.24c0 0.02 0.19 2.06-1.01 3.85-0.89 1.34-2.33 2.2-4.18 2.54h-18.69c-0.01 0.01-0.28 0.04-0.7 0.04-1.37 0-3.89-0.34-5.4-2.63-0.68-1.01-1.09-2.32-1.21-3.891l-0.02-0.229-0.46-0.34 0.48-0.671V49.5c0.16-0.38 0.67-1.64 0.87-2.46l1.24-0.39c0.11 0.06 0.24 0.1 0.39 0.1 0.54 0 1.13-0.49 1.87-1.57 0.25 0.03 0.61 0.06 1.01 0.06 1.16 0 1.91-0.24 2.29-0.73 0.05-0.06 0.09-0.13 0.12-0.19 0.03 0.02 0.05 0.04 0.07 0.05 0.29 0.21 0.68 0.49 1.19 0.49 0.38 0 0.74-0.15 1.13-0.48l0.24-0.24c0.49 0.38 1.47 0.53 2.7 0.05l0.05-0.02c0.24 0.13 0.58 0.17 0.93 0.04 0.29 0.12 0.71 0.19 1.601 0.06 0.569-0.08 1.15 0 1.65 0.06 0.761 0.09 1.17 0.03 1.38-0.14l0.851-0.12c0.31 0.32 0.97 0.49 1.8 0.08 0.33 0.17 0.94 0.41 1.52 0.41 0.41 0 0.75-0.12 1-0.35 0.381-0.33 0.83-0.34 1.011-0.33 0.22 0.12 0.8 0.38 1.52 0.38 0.26 0 0.51-0.03 0.76-0.1 0.04 0.51 0.181 1.14 0.58 1.58 0.301 0.33 0.69 0.51 1.15 0.53l1.63 0.48 0.64 1.98v4.23l0.011 0.37 0.35 0.109c0.05 0.021 0.13 0.07 0.14 0.091C66.101 53.53 66.101 53.689 65.751 54.04z" fill="#374151" data-fill-palette-color="accent"></path><path d="M59.461 67.72c-0.42-0.1-1.04 0.23-2.22 1.03-0.71 0.49-1.98 0.729-3.88 0.729-1.561 0-2.951-0.17-3.011-0.17l-0.439-0.06v-1.101l-0.33 0.881-0.271 0.05c-0.84 0.16-1.68 0.25-2.479 0.25-3.13 0-5.27-1.23-6.45-2.19-0.29 0.181-0.55 0.32-0.77 0.391-0.03-0.091-0.07-0.181-0.1-0.28l-0.09-0.16c-0.13-0.15-0.83-0.9-1.56-0.9-0.38 0-0.82 0.17-1.07 0.87-0.41-0.22-0.95-0.45-1.47-0.45-0.51 0-0.94 0.211-1.22 0.61-0.35 0.47-0.45 0.92-0.29 1.311 0.08 0.189 0.2 0.329 0.34 0.439-0.12 0.2-0.19 0.42-0.13 0.66 0.03 0.13 0.09 0.27 0.23 0.39-0.14 0.34-0.22 0.75-0.04 1.07 0.05 0.1 0.16 0.23 0.35 0.31 0.02 0.221 0.08 0.471 0.24 0.66 0.14 0.17 0.4 0.36 0.84 0.351 0.16 0.029 0.5 0.1 0.84 0.1 0.61 0 0.96-0.2 1.15-0.43l0.46 0.2 0.21 0.06c0.11 0.88 0.63 2.03 1.49 1.58 1.42-0.75 3.62-2.46 3.62-2.46l-1.04 11.8c0 0 0.38-0.04 0.99-0.06 0.06-0.091 0.12-0.19 0.189-0.29l0.15-0.221h0.27c1.36 0.011 3.29 0.181 4.851 0.9h1.189l-0.09 0.5c0 0 0.26 0.04 0.59 0.01l-0.08-0.41 0.42-0.14c0.171-0.05 0.291-0.13 0.341-0.22l0.239-0.4 0.42 0.21c0 0 0.271 0.16 0.78 0.16 0.521 0 1.29-0.17 2.25-0.87l0.23-0.17 0.27 0.13c0 0 0.61 0.271 1.22 0.391l0.21 0.04 0.12 0.17c0.091 0.13 0.17 0.26 0.25 0.38l0.61 0.09-1.01-7.43c0.14 0.21 0.319 0.34 0.5 0.43 0.2 0.09 0.37 0.14 0.54 0.14 0.09 0 0.16-0.01 0.229-0.029 0 0.01 0 0.01 0 0.02-0.14 1.04-0.21 1.69 0.13 2.07 0.13 0.16 0.33 0.25 0.54 0.25 0.15 0 0.311-0.04 0.471-0.12 1.479-0.74 1.63-2.51 1.64-2.62v-2.41c0.19-0.02 0.29-0.12 0.27-0.3C61.101 73.46 60.351 70 59.461 67.72zM39.15 70.1c-0.37 0.21-0.49 0.58-0.54 0.87-0.04 0-0.07-0.01-0.11-0.01-0.07 0-0.29 0.02-0.46 0.2l-1.14-0.45-0.03 0.72c-0.02 0.021-0.13 0.08-0.39 0.08-0.33 0-0.67-0.09-0.67-0.09l-0.23 0.02c-0.03-0.06-0.04-0.25-0.01-0.38l0.08-0.71-0.49 0.08c0.05-0.12 0.11-0.26 0.18-0.38l0.35-0.59-0.57-0.13c0.05-0.05 0.1-0.101 0.15-0.141l0.85-0.68-1.07-0.2c-0.14-0.029-0.29-0.109-0.31-0.149 0 0-0.02-0.11 0.16-0.36 0.39-0.53 1.59 0.22 1.91 0.47l0.71 0.57 0.1-0.91c0.06-0.55 0.19-0.72 0.24-0.74 0.17 0 0.51 0.25 0.74 0.49C38.951 68.689 39.19 69.75 39.15 70.1zM46.981 76.399H46.17l-0.38 0.94-0.44-1.06H44.6l0.69-0.75 0.06-0.94 0.631 0.5 1-0.25L46.6 75.78 46.981 76.399zM53.851 72.149v0.881l-0.939-0.75h-1.29l1.29-0.69-0.62-0.81 0.89 0.25 0.801-0.25-0.07 0.5 0.82 0.619L53.851 72.149zM56.411 73.34c0 0 0.12-0.04 0.31-0.09-0.1 0.33-0.16 0.63-0.199 0.899L56.411 73.34zM59.831 76.13c0 0.01-0.1 1.08-0.9 1.64 0.011-0.3 0.07-0.75 0.11-1.05 0.14-1.02 0.26-1.91-0.19-2.35-0.06-0.07-0.25-0.25-0.51-0.25-0.6 0-0.609 0.649-0.62 0.989 0 0.11 0 0.301-0.02 0.44-0.3-0.18-0.311-0.95-0.04-1.97 0.53-0.07 0.89 0.01 1.01 0.08 0.36 0.189 0.771 0.359 1.16 0.47V76.13zM59.541 70.78l-0.5 1.119-0.37-0.619-1.32-0.5 0.5-0.561v-1.24l0.761 0.48 0.87-0.48v0.67l0.39 1.44L59.541 70.78z" fill="#374151" data-fill-palette-color="accent"></path><path d="M48.81 84.59l-0.39 2.07-0.58 0.1-0.12 0.14c-0.319 0.37-0.84 0.311-1.39 0.181-0.25-0.061-0.49-0.12-0.72-0.12-0.561 0-0.801 0.35-0.86 0.5 0 0.01-0.15 0.12-0.79 0.12-0.77 0-1.76-0.17-2.3-0.271V86.5c0-0.03 0.07-0.11 0.29-0.19 0.22-0.069 0.66-0.22 2.28-2.62 1.27 0.03 2.939 0.21 4.26 0.851L48.81 84.59z" fill="#374151" data-fill-palette-color="accent"></path><path d="M58.761 86.53l0.011 0.779c-0.54 0.101-1.53 0.271-2.311 0.271-0.53 0-0.72-0.08-0.75-0.08-0.1-0.2-0.34-0.54-0.9-0.54-0.229 0-0.47 0.06-0.72 0.12-0.55 0.13-1.069 0.2-1.39-0.181l-0.12-0.14-0.58-0.1-0.44-2.34c0.08-0.04 0.15-0.091 0.211-0.15 0.21 0.06 0.5 0.11 0.85 0.11 0.6 0 1.53-0.16 2.61-0.87 0.229 0.09 0.59 0.22 0.979 0.31 1.59 2.38 2.061 2.53 2.26 2.59 0.21 0.08 0.301 0.16 0.301 0.16L58.761 86.53z" fill="#374151" data-fill-palette-color="accent"></path></svg></g></svg></g></svg></g><defs></defs></svg><rect width="339.775570174022" height="247.2" fill="none" stroke="none" visibility="hidden"></rect></g></svg></g></svg>